<svg width="25" height="35" viewBox="0 0 25 35" fill="none" xmlns="http://www.w3.org/2000/svg">
<path fill-rule="evenodd" clip-rule="evenodd" d="M24.9565 9.10319C25.0098 9.34729 25.0142 9.59945 24.9695 9.84525C24.9248 10.0911 24.8318 10.3257 24.696 10.5357C24.5602 10.7456 24.3841 10.9269 24.1778 11.069C23.9716 11.2112 23.7392 11.3114 23.494 11.364L17.5612 12.6401C17.0733 12.7445 16.636 13.0122 16.3223 13.3987C16.0085 13.7851 15.8371 14.267 15.8368 14.764V16.677C15.8375 18.7556 16.2123 20.8171 16.9435 22.764L20.4883 32.2182C20.5759 32.452 20.6164 32.7007 20.6074 32.9501C20.5985 33.1995 20.5403 33.4447 20.4362 33.6717C20.3322 33.8987 20.1842 34.103 20.0008 34.2731C19.8174 34.4431 19.6022 34.5756 19.3675 34.6628C19.1327 34.75 18.883 34.7903 18.6326 34.7814C18.3822 34.7725 18.136 34.7146 17.908 34.6109C17.6801 34.5072 17.4749 34.3599 17.3042 34.1773C17.1334 33.9946 17.0005 33.7803 16.9129 33.5465L13.5209 24.5031C13.4431 24.2954 13.3035 24.1164 13.1207 23.99C12.938 23.8636 12.7207 23.7958 12.4982 23.7958C12.2757 23.7958 12.0585 23.8636 11.8757 23.99C11.6929 24.1164 11.5533 24.2954 11.4756 24.5031L8.08352 33.5465C7.90667 34.0187 7.54871 34.4016 7.08839 34.6109C6.62807 34.8203 6.10311 34.8389 5.62898 34.6628C5.15485 34.4866 4.7704 34.1301 4.56019 33.6717C4.34999 33.2133 4.33126 32.6904 4.50812 32.2182L8.05515 22.7618C8.78556 20.8148 9.15964 18.7533 9.15964 16.6749V14.764C9.1594 14.2673 8.98837 13.7857 8.67503 13.3993C8.36169 13.0128 7.92492 12.7449 7.43742 12.6401L1.5046 11.3619C1.00992 11.2552 0.578043 10.9572 0.303981 10.5334C0.0299199 10.1096 -0.0638788 9.59477 0.0432199 9.1021C0.150319 8.60944 0.449542 8.17932 0.875064 7.90638C1.30059 7.63343 1.81755 7.54002 2.31223 7.64668L10.6549 9.44232C11.8705 9.70397 13.1282 9.70397 14.3438 9.44232L22.6864 7.64668C22.9315 7.59363 23.1847 7.58924 23.4315 7.63376C23.6783 7.67827 23.9139 7.77082 24.1247 7.9061C24.3356 8.04138 24.5176 8.21675 24.6603 8.42216C24.803 8.62757 24.9037 8.859 24.9565 9.10319ZM12.4054 0.00108702C12.9143 -0.0110341 13.4205 0.0783199 13.8942 0.263893C14.3679 0.449466 14.7996 0.727511 15.1638 1.08167C15.528 1.43583 15.8174 1.85896 16.015 2.32615C16.2126 2.79335 16.3144 3.29519 16.3144 3.80214C16.3144 4.3091 16.2126 4.81094 16.015 5.27813C15.8174 5.74533 15.528 6.16846 15.1638 6.52262C14.7996 6.87678 14.3679 7.15482 13.8942 7.34039C13.4205 7.52597 12.9143 7.61532 12.4054 7.6032C11.409 7.57947 10.4614 7.16858 9.76513 6.45833C9.06882 5.74808 8.67903 4.79479 8.67903 3.80214C8.67903 2.8095 9.06882 1.85621 9.76513 1.14596C10.4614 0.435708 11.409 0.0248209 12.4054 0.00108702Z" fill="black"/>
</svg>
