<svg width="211" height="150" viewBox="0 0 211 150" fill="none" xmlns="http://www.w3.org/2000/svg">
<g filter="url(#filter0_d_4_12001)">
<rect x="31.0811" y="53.5676" width="148.27" height="86.4324" fill="#FFC2D3"/>
<rect x="24.0537" y="10" width="161.622" height="7.02703" fill="#E15D82"/>
<path d="M24.0541 17.0271H39.5135L30.7297 45.4866H10L24.0541 17.0271Z" fill="#F1638A"/>
<path d="M39.5135 17.0271H57.7838L52.1622 45.4866H30.7297L39.5135 17.0271Z" fill="white"/>
<path d="M57.7838 17.0271H76.7568L72.5405 45.4866H52.1622L57.7838 17.0271Z" fill="#F1638A"/>
<path d="M76.7568 17.0271H94.3243L93.973 45.4866H72.5405L76.7568 17.0271Z" fill="white"/>
<path d="M94.3243 17.0271H115.757V45.4866H93.973L94.3243 17.0271Z" fill="#F1638A"/>
<path d="M115.757 17.0271L133.676 17.0271L137.189 45.4866H115.757V17.0271Z" fill="white"/>
<path d="M133.676 17.0271H152.297L157.568 45.4866H137.189L133.676 17.0271Z" fill="#F1638A"/>
<path d="M152.297 17.0271L169.865 17.0271L178.649 45.4866H157.568L152.297 17.0271Z" fill="white"/>
<path d="M169.865 17.0271H185.676L200.081 45.4866H178.649L169.865 17.0271Z" fill="#F1638A"/>
<path d="M10 45.4866H30.7297V51.2839C30.7297 57.0082 26.0892 61.6487 20.3649 61.6487C14.6405 61.6487 10 57.0082 10 51.2839V45.4866Z" fill="#F1638A"/>
<path d="M137.189 45.4866H157.568V51.4595C157.568 57.0869 153.006 61.6487 147.379 61.6487C141.751 61.6487 137.189 57.0869 137.189 51.4595V45.4866Z" fill="#F1638A"/>
<path d="M178.648 45.4866H200.081V50.9325C200.081 56.8509 195.283 61.6487 189.365 61.6487C183.446 61.6487 178.648 56.8509 178.648 50.9325V45.4866Z" fill="#F1638A"/>
<path d="M52.1621 45.4866H72.5405V51.4595C72.5405 57.0869 67.9786 61.6487 62.3513 61.6487C56.724 61.6487 52.1621 57.0869 52.1621 51.4595V45.4866Z" fill="#F1638A"/>
<path d="M93.6221 45.4866H115.757V50.2298C115.757 56.3423 110.802 61.2974 104.69 61.2974C98.5772 61.2974 93.6221 56.3423 93.6221 50.2298V45.4866Z" fill="#F1638A"/>
<path d="M30.7295 45.4866H52.1619V50.9325C52.1619 56.8509 47.3641 61.6487 41.4457 61.6487C35.5273 61.6487 30.7295 56.8509 30.7295 50.9325V45.4866Z" fill="white"/>
<path d="M157.567 45.4866H178.648V51.1082C178.648 56.9296 173.929 61.6487 168.108 61.6487C162.287 61.6487 157.567 56.9296 157.567 51.1082V45.4866Z" fill="white"/>
<path d="M72.541 45.1353H93.9734V50.5812C93.9734 56.4996 89.1756 61.2974 83.2572 61.2974C77.3388 61.2974 72.541 56.4996 72.541 50.5812V45.1353Z" fill="white"/>
<path d="M115.757 45.4866H137.189V50.8752C137.189 56.8253 132.366 61.6487 126.416 61.6487C120.374 61.6487 115.513 56.6813 115.645 50.6411L115.757 45.4866Z" fill="white"/>
<path d="M69.7295 80.1621C78.3272 80.1621 85.2968 87.1318 85.2969 95.7295V138H54.1621V95.7295C54.1622 87.1319 61.1319 80.1622 69.7295 80.1621Z" fill="#F1638A" stroke="white" stroke-width="4"/>
<rect x="106.865" y="80.1621" width="55.7297" height="14.973" fill="#F1638A" stroke="white" stroke-width="4"/>
</g>
<defs>
<filter id="filter0_d_4_12001" x="0" y="0" width="210.081" height="150" filterUnits="userSpaceOnUse" color-interpolation-filters="sRGB">
<feFlood flood-opacity="0" result="BackgroundImageFix"/>
<feColorMatrix in="SourceAlpha" type="matrix" values="0 0 0 0 0 0 0 0 0 0 0 0 0 0 0 0 0 0 127 0" result="hardAlpha"/>
<feOffset/>
<feGaussianBlur stdDeviation="5"/>
<feComposite in2="hardAlpha" operator="out"/>
<feColorMatrix type="matrix" values="0 0 0 0 0 0 0 0 0 0 0 0 0 0 0 0 0 0 0.3 0"/>
<feBlend mode="normal" in2="BackgroundImageFix" result="effect1_dropShadow_4_12001"/>
<feBlend mode="normal" in="SourceGraphic" in2="effect1_dropShadow_4_12001" result="shape"/>
</filter>
</defs>
</svg>
