<svg width="116" height="197" viewBox="0 0 116 197" fill="none" xmlns="http://www.w3.org/2000/svg">
<g filter="url(#filter0_d_4_12041)">
<rect x="12.5557" y="36.8374" width="90.0975" height="3.83394" fill="#F1638A"/>
<rect x="10" y="33.0034" width="95.8484" height="3.83394" rx="1.91697" fill="#E15D82"/>
<path d="M11.2783 30.3359C11.2783 27.5745 13.5169 25.3359 16.2783 25.3359H99.5707C102.332 25.3359 104.571 27.5745 104.571 30.3359V33.0038H11.2783V30.3359Z" fill="#FFC2D3"/>
<path d="M17.0288 10H98.8194L101.056 25.3357H14.1533L17.0288 10Z" fill="#F1638A"/>
<rect x="26.6133" y="182.527" width="63.2599" height="4.47292" rx="2.23646" fill="#F1638A"/>
<path d="M12.5557 40.6714H102.014L88.9149 183.805H27.5719L12.5557 40.6714Z" fill="white"/>
<path d="M49.8076 91.3857C52.3812 90.3309 55.2148 89.7471 58.1904 89.7471C63.4356 89.7471 67.9968 91.1659 71.7139 94.1758C76.3539 97.9331 79.5439 103.95 79.5439 110.23C79.5438 116.62 76.4932 122.528 71.7139 126.284C68.0315 129.178 63.3223 130.713 58.1904 130.713C46.3978 130.713 36.8381 121.543 36.8379 110.23C36.8379 109.725 36.858 109.224 36.8955 108.728H36.8379V77.0938H49.8076V91.3857Z" fill="#F1638A"/>
<circle cx="64.9138" cy="103.271" r="5.77317" fill="white"/>
</g>
<defs>
<filter id="filter0_d_4_12041" x="0" y="0" width="115.849" height="197" filterUnits="userSpaceOnUse" color-interpolation-filters="sRGB">
<feFlood flood-opacity="0" result="BackgroundImageFix"/>
<feColorMatrix in="SourceAlpha" type="matrix" values="0 0 0 0 0 0 0 0 0 0 0 0 0 0 0 0 0 0 127 0" result="hardAlpha"/>
<feOffset/>
<feGaussianBlur stdDeviation="5"/>
<feComposite in2="hardAlpha" operator="out"/>
<feColorMatrix type="matrix" values="0 0 0 0 0 0 0 0 0 0 0 0 0 0 0 0 0 0 0.3 0"/>
<feBlend mode="normal" in2="BackgroundImageFix" result="effect1_dropShadow_4_12041"/>
<feBlend mode="normal" in="SourceGraphic" in2="effect1_dropShadow_4_12041" result="shape"/>
</filter>
</defs>
</svg>
