<svg width="27" height="36" viewBox="0 0 27 36" fill="none" xmlns="http://www.w3.org/2000/svg">
<path d="M26.7764 17.5925L14.4294 0.493466C14.319 0.341073 14.1737 0.216856 14.0053 0.131058C13.837 0.0452593 13.6505 0.000338461 13.4612 0H13.4584C13.2683 0.00039333 13.0812 0.0457127 12.9124 0.132192C12.7436 0.218672 12.598 0.343815 12.4879 0.497222L0.22046 17.5962C0.0934906 17.7729 0.0182101 17.9809 0.00290897 18.1973C-0.0123922 18.4137 0.0328804 18.6301 0.13374 18.8226C0.233927 19.0154 0.385857 19.1771 0.572808 19.2898C0.75976 19.4025 0.974482 19.462 1.19334 19.4616H6.96665L6.96618 34.8192C6.96612 34.9743 6.99692 35.1279 7.05682 35.2712C7.11672 35.4146 7.20455 35.5448 7.31528 35.6544C7.42601 35.7641 7.55748 35.8511 7.70216 35.9104C7.84684 35.9697 8.0019 36.0001 8.15847 36L18.8403 35.9995C18.9969 35.9996 19.152 35.9691 19.2967 35.9097C19.4414 35.8503 19.5729 35.7633 19.6836 35.6535C19.7944 35.5437 19.8822 35.4134 19.942 35.27C20.0019 35.1266 20.0327 34.9729 20.0325 34.8177V19.4621H25.8077C26.2532 19.4621 26.6622 19.2132 26.8678 18.8203C26.9683 18.6271 27.0129 18.4103 26.9968 18.1936C26.9806 17.9769 26.9044 17.7689 26.7764 17.5925Z" fill="#F66B95"/>
</svg>
